<svg width="49" height="49" viewBox="0 0 49 49" fill="none" xmlns="http://www.w3.org/2000/svg">
<path fill-rule="evenodd" clip-rule="evenodd" d="M5.39126 9.67126C4.50761 9.67126 3.79126 10.3876 3.79126 11.2713C3.79126 12.1549 4.50761 12.8713 5.39126 12.8713H43.7913C44.6748 12.8713 45.3913 12.1549 45.3913 11.2713C45.3913 10.3876 44.6748 9.67126 43.7913 9.67126H5.39126ZM3.79126 24.0713C3.79126 23.1876 4.50761 22.4713 5.39126 22.4713H43.7913C44.6748 22.4713 45.3913 23.1876 45.3913 24.0713C45.3913 24.9549 44.6748 25.6713 43.7913 25.6713H5.39126C4.50761 25.6713 3.79126 24.9549 3.79126 24.0713ZM3.79126 36.8713C3.79126 35.9877 4.50761 35.2713 5.39126 35.2713H43.7913C44.6748 35.2713 45.3913 35.9877 45.3913 36.8713C45.3913 37.7548 44.6748 38.4713 43.7913 38.4713H5.39126C4.50761 38.4713 3.79126 37.7548 3.79126 36.8713Z" fill="#663329"/>
</svg>
