<svg width="49" height="49" viewBox="0 0 49 49" fill="none" xmlns="http://www.w3.org/2000/svg">
<path fill-rule="evenodd" clip-rule="evenodd" d="M37.8262 13.1511C38.5449 12.4325 38.5449 11.2675 37.8262 10.5489C37.1078 9.83037 35.9427 9.83037 35.2243 10.5489L24.1253 21.6479L13.0263 10.5489C12.3078 9.83037 11.1427 9.83037 10.4242 10.5489C9.70561 11.2675 9.70561 12.4325 10.4242 13.1511L21.5231 24.25L10.4242 35.3489C9.70561 36.0677 9.70561 37.2324 10.4242 37.9512C11.1427 38.6696 12.3078 38.6696 13.0263 37.9512L24.1253 26.8522L35.2243 37.9512C35.9427 38.6696 37.1078 38.6696 37.8262 37.9512C38.5449 37.2324 38.5449 36.0677 37.8262 35.3489L26.7274 24.25L37.8262 13.1511Z" fill="#663329"/>
</svg>
